<svg width="924" height="166" viewBox="0 0 924 166" fill="none" xmlns="http://www.w3.org/2000/svg">
    <rect width="65" height="65" fill="white"/>
    <rect x="116" y="101" width="65" height="65" fill="white"/>
    <circle cx="148.5" cy="32.5" r="32.5" fill="white"/>
    <circle cx="32.5" cy="133.5" r="32.5" fill="white"/>
    <path d="M323.824 59.6534C323.37 55.6193 321.495 52.4943 318.199 50.2784C314.904 48.0341 310.756 46.9119 305.756 46.9119C302.176 46.9119 299.08 47.4801 296.466 48.6165C293.853 49.7244 291.821 51.2585 290.373 53.2188C288.952 55.1506 288.242 57.3523 288.242 59.8239C288.242 61.8977 288.725 63.6875 289.691 65.1932C290.685 66.6989 291.978 67.9631 293.569 68.9858C295.188 69.9801 296.921 70.8182 298.767 71.5C300.614 72.1534 302.39 72.6932 304.094 73.1193L312.617 75.3352C315.401 76.017 318.256 76.9403 321.182 78.1051C324.108 79.2699 326.821 80.804 329.321 82.7074C331.821 84.6108 333.838 86.9688 335.373 89.7812C336.935 92.5938 337.716 95.9602 337.716 99.8807C337.716 104.824 336.438 109.213 333.881 113.048C331.353 116.884 327.674 119.909 322.844 122.125C318.043 124.341 312.233 125.449 305.415 125.449C298.881 125.449 293.228 124.412 288.455 122.338C283.682 120.264 279.946 117.324 277.248 113.517C274.549 109.682 273.057 105.136 272.773 99.8807H285.983C286.239 103.034 287.262 105.662 289.051 107.764C290.87 109.838 293.185 111.386 295.998 112.409C298.838 113.403 301.949 113.901 305.33 113.901C309.051 113.901 312.361 113.318 315.259 112.153C318.185 110.96 320.486 109.312 322.162 107.21C323.838 105.08 324.676 102.594 324.676 99.7528C324.676 97.1676 323.938 95.0511 322.461 93.4034C321.012 91.7557 319.037 90.392 316.537 89.3125C314.066 88.233 311.267 87.2812 308.142 86.4574L297.83 83.6449C290.841 81.7415 285.301 78.9432 281.211 75.25C277.148 71.5568 275.117 66.6705 275.117 60.5909C275.117 55.5625 276.48 51.1733 279.208 47.4233C281.935 43.6733 285.628 40.7614 290.287 38.6875C294.946 36.5852 300.202 35.5341 306.054 35.5341C311.963 35.5341 317.176 36.571 321.694 38.6449C326.239 40.7188 329.819 43.5739 332.432 47.2102C335.046 50.8182 336.409 54.9659 336.523 59.6534H323.824ZM380.639 125.321C374.19 125.321 368.636 123.943 363.977 121.188C359.346 118.403 355.767 114.497 353.238 109.469C350.738 104.412 349.488 98.4886 349.488 91.6989C349.488 84.9943 350.738 79.0852 353.238 73.9716C355.767 68.858 359.289 64.8665 363.806 61.9972C368.352 59.1278 373.664 57.6932 379.744 57.6932C383.437 57.6932 387.017 58.304 390.483 59.5256C393.949 60.7472 397.059 62.6648 399.815 65.2784C402.571 67.892 404.744 71.2869 406.335 75.4631C407.926 79.6108 408.721 84.6534 408.721 90.5909V95.108H356.69V85.5625H396.235C396.235 82.2102 395.554 79.2415 394.19 76.6562C392.826 74.0426 390.909 71.983 388.437 70.4773C385.994 68.9716 383.125 68.2188 379.829 68.2188C376.25 68.2188 373.125 69.0994 370.454 70.8608C367.812 72.5937 365.767 74.8665 364.318 77.679C362.897 80.4631 362.187 83.4886 362.187 86.7557V94.2131C362.187 98.5881 362.954 102.31 364.488 105.378C366.051 108.446 368.224 110.79 371.008 112.409C373.792 114 377.045 114.795 380.767 114.795C383.181 114.795 385.383 114.455 387.372 113.773C389.36 113.062 391.079 112.011 392.528 110.619C393.977 109.227 395.085 107.509 395.852 105.463L407.912 107.636C406.946 111.187 405.213 114.298 402.713 116.969C400.241 119.611 397.13 121.67 393.38 123.148C389.659 124.597 385.412 125.321 380.639 125.321ZM422.858 124V58.5455H435.088V69.1989H435.898C437.262 65.5909 439.492 62.7784 442.588 60.7614C445.685 58.7159 449.392 57.6932 453.711 57.6932C458.086 57.6932 461.75 58.7159 464.705 60.7614C467.688 62.8068 469.89 65.6193 471.31 69.1989H471.992C473.554 65.7045 476.04 62.9205 479.449 60.8466C482.858 58.7443 486.921 57.6932 491.637 57.6932C497.574 57.6932 502.418 59.554 506.168 63.2756C509.946 66.9972 511.836 72.608 511.836 80.108V124H499.094V81.3011C499.094 76.8693 497.887 73.6591 495.472 71.6705C493.057 69.6818 490.174 68.6875 486.821 68.6875C482.674 68.6875 479.449 69.9659 477.148 72.5227C474.847 75.0511 473.696 78.304 473.696 82.2812V124H460.998V80.4915C460.998 76.9403 459.89 74.0852 457.674 71.9261C455.458 69.767 452.574 68.6875 449.023 68.6875C446.608 68.6875 444.378 69.3267 442.333 70.6051C440.316 71.8551 438.682 73.6023 437.432 75.8466C436.211 78.0909 435.6 80.6903 435.6 83.6449V124H422.858ZM547.961 125.449C543.814 125.449 540.064 124.682 536.711 123.148C533.359 121.585 530.703 119.327 528.743 116.372C526.811 113.418 525.845 109.795 525.845 105.506C525.845 101.812 526.555 98.7727 527.975 96.3864C529.396 94 531.314 92.1108 533.728 90.7188C536.143 89.3267 538.842 88.2756 541.825 87.5653C544.808 86.8551 547.848 86.3153 550.944 85.946C554.865 85.4915 558.047 85.1222 560.49 84.8381C562.933 84.5256 564.708 84.0284 565.816 83.3466C566.924 82.6648 567.478 81.5568 567.478 80.0227V79.7244C567.478 76.0028 566.427 73.1193 564.325 71.0739C562.251 69.0284 559.154 68.0057 555.035 68.0057C550.745 68.0057 547.365 68.9574 544.893 70.8608C542.45 72.7358 540.76 74.8239 539.822 77.125L527.848 74.3977C529.268 70.4205 531.342 67.2102 534.069 64.767C536.825 62.2955 539.993 60.5057 543.572 59.3977C547.152 58.2614 550.916 57.6932 554.865 57.6932C557.478 57.6932 560.248 58.0057 563.174 58.6307C566.129 59.2273 568.885 60.3352 571.441 61.9545C574.027 63.5739 576.143 65.8892 577.791 68.9006C579.439 71.8835 580.262 75.7614 580.262 80.5341V124H567.819V115.051H567.308C566.484 116.699 565.248 118.318 563.6 119.909C561.953 121.5 559.836 122.821 557.251 123.872C554.666 124.923 551.569 125.449 547.961 125.449ZM550.731 115.222C554.254 115.222 557.265 114.526 559.765 113.134C562.294 111.741 564.211 109.923 565.518 107.679C566.853 105.406 567.521 102.977 567.521 100.392V91.9545C567.066 92.4091 566.186 92.8352 564.879 93.233C563.6 93.6023 562.137 93.929 560.49 94.2131C558.842 94.4687 557.237 94.7102 555.674 94.9375C554.112 95.1364 552.805 95.3068 551.754 95.4489C549.282 95.7614 547.024 96.2869 544.978 97.0256C542.961 97.7642 541.342 98.8295 540.12 100.222C538.927 101.585 538.331 103.403 538.331 105.676C538.331 108.83 539.495 111.216 541.825 112.835C544.154 114.426 547.123 115.222 550.731 115.222ZM597.233 148.545V58.5455H609.676V69.1562H610.742C611.48 67.7926 612.546 66.2159 613.938 64.4261C615.33 62.6364 617.262 61.0739 619.733 59.7386C622.205 58.375 625.472 57.6932 629.534 57.6932C634.819 57.6932 639.534 59.0284 643.682 61.6989C647.83 64.3693 651.083 68.2187 653.441 73.2472C655.827 78.2756 657.02 84.3267 657.02 91.4006C657.02 98.4744 655.841 104.54 653.483 109.597C651.125 114.625 647.887 118.503 643.767 121.23C639.648 123.929 634.946 125.278 629.662 125.278C625.685 125.278 622.432 124.611 619.904 123.276C617.404 121.94 615.444 120.378 614.023 118.588C612.603 116.798 611.509 115.207 610.742 113.815H609.975V148.545H597.233ZM609.719 91.2727C609.719 95.875 610.387 99.9091 611.722 103.375C613.057 106.841 614.989 109.554 617.517 111.514C620.046 113.446 623.142 114.412 626.807 114.412C630.614 114.412 633.796 113.403 636.353 111.386C638.909 109.341 640.841 106.571 642.148 103.077C643.483 99.5824 644.151 95.6477 644.151 91.2727C644.151 86.9545 643.498 83.0767 642.191 79.6392C640.912 76.2017 638.98 73.4886 636.395 71.5C633.838 69.5114 630.642 68.517 626.807 68.517C623.114 68.517 619.989 69.4687 617.432 71.3722C614.904 73.2756 612.986 75.9318 611.679 79.3409C610.373 82.75 609.719 86.7273 609.719 91.2727ZM684.037 85.1364V124H671.296V36.7273H683.867V69.1989H684.676C686.211 65.6761 688.554 62.8778 691.708 60.804C694.861 58.7301 698.98 57.6932 704.066 57.6932C708.554 57.6932 712.475 58.6165 715.827 60.4631C719.208 62.3097 721.821 65.0653 723.668 68.7301C725.543 72.3665 726.48 76.9119 726.48 82.3665V124H713.739V83.9006C713.739 79.0994 712.503 75.3778 710.032 72.7358C707.56 70.0653 704.123 68.7301 699.719 68.7301C696.708 68.7301 694.009 69.3693 691.623 70.6477C689.265 71.9261 687.404 73.8011 686.04 76.2727C684.705 78.7159 684.037 81.6705 684.037 85.1364ZM771.054 125.321C764.918 125.321 759.563 123.915 754.989 121.102C750.415 118.29 746.864 114.355 744.336 109.298C741.807 104.241 740.543 98.3324 740.543 91.571C740.543 84.7812 741.807 78.8437 744.336 73.7585C746.864 68.6733 750.415 64.7244 754.989 61.9119C759.563 59.0994 764.918 57.6932 771.054 57.6932C777.191 57.6932 782.546 59.0994 787.12 61.9119C791.694 64.7244 795.245 68.6733 797.773 73.7585C800.301 78.8437 801.566 84.7812 801.566 91.571C801.566 98.3324 800.301 104.241 797.773 109.298C795.245 114.355 791.694 118.29 787.12 121.102C782.546 123.915 777.191 125.321 771.054 125.321ZM771.097 114.625C775.074 114.625 778.37 113.574 780.983 111.472C783.597 109.369 785.529 106.571 786.779 103.077C788.057 99.5824 788.696 95.733 788.696 91.5284C788.696 87.3523 788.057 83.517 786.779 80.0227C785.529 76.5 783.597 73.6733 780.983 71.5426C778.37 69.4119 775.074 68.3466 771.097 68.3466C767.091 68.3466 763.767 69.4119 761.125 71.5426C758.512 73.6733 756.566 76.5 755.287 80.0227C754.037 83.517 753.412 87.3523 753.412 91.5284C753.412 95.733 754.037 99.5824 755.287 103.077C756.566 106.571 758.512 109.369 761.125 111.472C763.767 113.574 767.091 114.625 771.097 114.625ZM815.788 124V58.5455H828.103V68.9432H828.785C829.978 65.4205 832.081 62.6506 835.092 60.6335C838.132 58.5881 841.569 57.5653 845.404 57.5653C846.2 57.5653 847.137 57.5937 848.217 57.6506C849.325 57.7074 850.191 57.7784 850.816 57.8636V70.0511C850.305 69.9091 849.396 69.7528 848.089 69.5824C846.782 69.3835 845.475 69.2841 844.169 69.2841C841.157 69.2841 838.473 69.9233 836.115 71.2017C833.785 72.4517 831.939 74.1989 830.575 76.4432C829.211 78.6591 828.529 81.1875 828.529 84.0284V124H815.788ZM887.709 125.321C881.26 125.321 875.706 123.943 871.047 121.188C866.417 118.403 862.837 114.497 860.309 109.469C857.809 104.412 856.559 98.4886 856.559 91.6989C856.559 84.9943 857.809 79.0852 860.309 73.9716C862.837 68.858 866.36 64.8665 870.877 61.9972C875.422 59.1278 880.735 57.6932 886.814 57.6932C890.507 57.6932 894.087 58.304 897.553 59.5256C901.019 60.7472 904.13 62.6648 906.885 65.2784C909.641 67.892 911.814 71.2869 913.405 75.4631C914.996 79.6108 915.792 84.6534 915.792 90.5909V95.108H863.76V85.5625H903.306C903.306 82.2102 902.624 79.2415 901.26 76.6562C899.897 74.0426 897.979 71.983 895.507 70.4773C893.064 68.9716 890.195 68.2188 886.9 68.2188C883.32 68.2188 880.195 69.0994 877.525 70.8608C874.882 72.5937 872.837 74.8665 871.388 77.679C869.968 80.4631 869.257 83.4886 869.257 86.7557V94.2131C869.257 98.5881 870.025 102.31 871.559 105.378C873.121 108.446 875.294 110.79 878.078 112.409C880.863 114 884.115 114.795 887.837 114.795C890.252 114.795 892.453 114.455 894.442 113.773C896.431 113.062 898.15 112.011 899.598 110.619C901.047 109.227 902.155 107.509 902.922 105.463L914.982 107.636C914.016 111.187 912.283 114.298 909.783 116.969C907.311 119.611 904.201 121.67 900.451 123.148C896.729 124.597 892.482 125.321 887.709 125.321Z" fill="white"/>
    </svg>
    